<?xml version="1.0" encoding="UTF-8" standalone="no"?>
<!-- Created with Inkscape (http://www.inkscape.org/) -->

<svg
   xmlns:dc="http://purl.org/dc/elements/1.1/"
   xmlns:cc="http://creativecommons.org/ns#"
   xmlns:rdf="http://www.w3.org/1999/02/22-rdf-syntax-ns#"
   xmlns:svg="http://www.w3.org/2000/svg"
   xmlns="http://www.w3.org/2000/svg"
   xmlns:sodipodi="http://sodipodi.sourceforge.net/DTD/sodipodi-0.dtd"
   xmlns:inkscape="http://www.inkscape.org/namespaces/inkscape"
   width="796.23041"
   height="720.078"
   id="svg2"
   version="1.1"
   inkscape:version="0.48.2 r9819"
   sodipodi:docname="polymath-logo.svg">
  <defs
     id="defs4" />
  <sodipodi:namedview
     id="base"
     pagecolor="#ffffff"
     bordercolor="#666666"
     borderopacity="1.0"
     inkscape:pageopacity="0.0"
     inkscape:pageshadow="2"
     inkscape:zoom="0.49497475"
     inkscape:cx="342.56253"
     inkscape:cy="244.91876"
     inkscape:document-units="px"
     inkscape:current-layer="layer1"
     showgrid="false"
     inkscape:window-width="1098"
     inkscape:window-height="962"
     inkscape:window-x="45"
     inkscape:window-y="0"
     inkscape:window-maximized="0"
     fit-margin-top="100"
     fit-margin-left="100"
     fit-margin-right="100"
     fit-margin-bottom="100" />
  <metadata
     id="metadata7">
    <rdf:RDF>
      <cc:Work
         rdf:about="">
        <dc:format>image/svg+xml</dc:format>
        <dc:type
           rdf:resource="http://purl.org/dc/dcmitype/StillImage" />
        <dc:title></dc:title>
      </cc:Work>
    </rdf:RDF>
  </metadata>
  <g
     inkscape:label="Layer 1"
     inkscape:groupmode="layer"
     id="layer1"
     transform="translate(43.76535,-234.42701)">
    <path
       style="font-size:625px;font-style:normal;font-weight:normal;line-height:125%;letter-spacing:0px;word-spacing:0px;fill:#000000;fill-opacity:1;stroke:none;font-family:Sans"
       d="m 349.57828,339.50515 c -59.59656,1.15968 -119.74968,33.33844 -147.4375,86.9375 -25.30749,50.42065 -10.53089,116.32956 31.99833,152.72474 24.42341,28.22771 47.3626,61.01402 49.75167,99.36901 -2.17604,9.9444 -16.47195,13.10458 -16.125,24.25 -0.0228,9.00446 5.1481,16.81554 10.59375,23.53125 -3.30884,9.17414 -13.84498,17.26888 -10,28.125 1.90765,9.3214 13.74062,12.85861 14.78125,22.28125 -1.08067,8.9363 -8.03058,19.66448 -1.125,27.96875 6.06659,9.24103 18.34998,8.66451 27.84375,10.625 9.19335,5.92954 8.81014,23.28908 19.2711,28.03553 20.0758,13.69064 54.00321,2.69191 61.90625,-16.875 1.65896,-6.03379 6.3824,-14.57825 16.67655,-15.75856 10.29415,-1.18031 20.18936,-3.64745 19.25832,-14.01577 -0.93104,-10.36832 -7.84894,-18.67086 -7.91377,-24.11082 -0.0648,-5.43996 16.26651,-10.73697 15.32991,-25.02825 -0.55896,-8.52893 -7.28665,-17.30427 -9.09356,-20.776 2.18414,-7.89314 7.06236,-9.01321 13.6902,-14.34613 5.19931,-9.7886 -1.29504,-21.19523 -9.4375,-27 -9.16429,-11.42958 -2.49432,-26.61373 1.69364,-38.59304 10.93373,-29.9323 31.85343,-54.35785 52.48254,-77.98329 18.1118,-21.56783 33.89287,-47.3571 34.88747,-76.16747 3.81924,-50.78962 -23.80094,-102.46843 -68.81365,-126.34995 -29.908,-18.24356 -65.13195,-27.3645 -100.21875,-26.84375 z m 3.28125,16.4375 c 50.58204,-0.44112 102.55334,22.98921 131.34375,65.40625 31.59563,44.86309 19.87891,112.51627 -22.78125,146.46875 -28.70305,30.31632 -49.47615,68.77773 -56.15625,110.125 -6.39121,10.11197 -20.29867,7.93236 -30.49928,7.33705 -24.35981,-0.74123 -48.74913,0.93472 -73.09447,-0.52455 -1.78976,-49.53635 -29.92677,-94.08343 -65,-127.375 -39.92158,-39.95244 -40.45054,-112.31248 -0.10485,-152.11153 29.26779,-32.16136 73.37339,-48.21478 116.29235,-49.32597 z"
       id="text2985"
       inkscape:connector-curvature="0"
       sodipodi:nodetypes="cccccccccccczzzsccccccccccccccccc"
       inkscape:export-filename="/Users/marcelloseri/Pictures/polymath-logo.png"
       inkscape:export-xdpi="219.94777"
       inkscape:export-ydpi="219.94777" />
    <text
       xml:space="preserve"
       style="font-size:42.76133347px;font-style:normal;font-weight:normal;line-height:125%;letter-spacing:0px;word-spacing:0px;fill:#000000;fill-opacity:1;stroke:none;font-family:Sans"
       x="-13.744715"
       y="683.96533"
       id="text3841"
       sodipodi:linespacing="125%"
       transform="scale(0.93542448,1.0690334)"
       inkscape:export-filename="/Users/marcelloseri/Pictures/polymath-logo.png"
       inkscape:export-xdpi="219.94777"
       inkscape:export-ydpi="219.94777"><tspan
         sodipodi:role="line"
         id="tspan3843"
         x="-13.744715"
         y="683.96533"
         style="font-size:534.5166626px;font-style:normal;font-variant:normal;font-weight:normal;font-stretch:normal;fill:#000000;font-family:Times New Roman;-inkscape-font-specification:Times New Roman">{</tspan></text>
    <text
       transform="scale(-0.93542448,1.0690334)"
       sodipodi:linespacing="125%"
       id="text3845"
       y="683.96533"
       x="-771.36835"
       style="font-size:42.76133347px;font-style:normal;font-weight:normal;line-height:125%;letter-spacing:0px;word-spacing:0px;fill:#000000;fill-opacity:1;stroke:none;font-family:Sans"
       xml:space="preserve"
       inkscape:export-filename="/Users/marcelloseri/Pictures/polymath-logo.png"
       inkscape:export-xdpi="219.94777"
       inkscape:export-ydpi="219.94777"><tspan
         style="font-size:534.5166626px;font-style:normal;font-variant:normal;font-weight:normal;font-stretch:normal;fill:#000000;font-family:Times New Roman;-inkscape-font-specification:Times New Roman"
         y="683.96533"
         x="-771.36835"
         id="tspan3847"
         sodipodi:role="line">{</tspan></text>
    <text
       xml:space="preserve"
       style="font-size:40px;font-style:normal;font-weight:normal;line-height:125%;letter-spacing:0px;word-spacing:0px;fill:#ffd42a;fill-opacity:1;stroke:none;font-family:Sans"
       x="280.44852"
       y="599.50507"
       id="text3849"
       sodipodi:linespacing="125%"
       inkscape:export-filename="/Users/marcelloseri/Pictures/polymath-logo.png"
       inkscape:export-xdpi="219.94777"
       inkscape:export-ydpi="219.94777"><tspan
         sodipodi:role="line"
         id="tspan3851"
         x="280.44852"
         y="599.50507"
         style="font-size:300px;fill:#ffd42a;font-family:Times New Roman;-inkscape-font-specification:Times New Roman">π</tspan></text>
  </g>
</svg>
